# xmcd
#
# Track frame offsets: 
#        150
#        23267
#        43455
#        60575
#        110042
#        133385
#        153497
#        176212
#        198295
#        227962
#        245302
#        265312
#
# Disc length: 3836 seconds
#
# Revision: 1
# Processed by: cddbd v1.5.2PL0 Copyright (c) Steve Scherf et al.
# Submitted via: ExactAudioCopy v0.99pb5
#
DISCID=ad0efa0c
DTITLE=Chino Espinoza -los dueños del son - Pura  vida
DYEAR=2005
DGENRE=Salsa
TTITLE0=Pura Vida
TTITLE1=Salsa De La Má Buena
TTITLE2=Yeah!
TTITLE3=Hector Lavoe Medley
TTITLE4=Flauta Y Trombone
TTITLE5=Asi Fue
TTITLE6=Mie Viejo
TTITLE7=Dale Duro
TTITLE8=Costa Rica Medley
TTITLE9=Pa' Que A Finque
TTITLE10=Ultima Llamada
TTITLE11=Yeah! - Raggaeton
EXTD=YEAR: 2005
EXTT0=
EXTT1=
EXTT2=
EXTT3=
EXTT4=
EXTT5=
EXTT6=
EXTT7=
EXTT8=
EXTT9=
EXTT10=
EXTT11=
PLAYORDER=
